<svg width="75" height="59" viewBox="0 0 75 59" fill="none" xmlns="http://www.w3.org/2000/svg">
<path d="M75 26.554C75 43.8074 60.5822 52.5613 42.797 52.5613C25.0117 52.5613 26.1301 43.8074 26.1301 26.554C26.1301 9.30062 25.0117 0 42.797 0C60.5822 0 75 9.30062 75 26.554Z" fill="url(#paint0_linear_12_2)"/>
<path d="M36.6526 38.9602C39.094 38.9602 41.0732 38.9022 41.0732 41.2193C41.0732 43.5365 39.094 45.4149 36.6526 45.4149C34.2112 45.4149 32.2321 43.5365 32.2321 41.2193C32.2321 38.9022 34.2112 38.9602 36.6526 38.9602Z" fill="url(#paint1_linear_12_2)"/>
<g filter="url(#filter0_d_12_2)">
<rect x="20" y="15.6763" width="33.3516" height="17.751" rx="8.87548" fill="url(#paint2_linear_12_2)" shape-rendering="crispEdges"/>
</g>
<rect x="20" y="15.6763" width="33.3516" height="17.751" rx="8.87548" fill="url(#paint3_linear_12_2)"/>
<path d="M29.5136 24.667C29.5136 27.5954 29.5747 29.9693 27.1352 29.9693C24.6958 29.9693 22.7182 27.5954 22.7182 24.667C22.7182 21.7387 24.6958 19.3648 27.1352 19.3648C29.5747 19.3648 29.5136 21.7387 29.5136 24.667Z" fill="white"/>
<defs>
<filter id="filter0_d_12_2" x="0" y="0.676331" width="73.3516" height="57.751" filterUnits="userSpaceOnUse" color-interpolation-filters="sRGB">
<feFlood flood-opacity="0" result="BackgroundImageFix"/>
<feColorMatrix in="SourceAlpha" type="matrix" values="0 0 0 0 0 0 0 0 0 0 0 0 0 0 0 0 0 0 127 0" result="hardAlpha"/>
<feOffset dy="5"/>
<feGaussianBlur stdDeviation="10"/>
<feComposite in2="hardAlpha" operator="out"/>
<feColorMatrix type="matrix" values="0 0 0 0 0 0 0 0 0 0 0 0 0 0 0 0 0 0 0.04 0"/>
<feBlend mode="normal" in2="BackgroundImageFix" result="effect1_dropShadow_12_2"/>
<feBlend mode="normal" in="SourceGraphic" in2="effect1_dropShadow_12_2" result="shape"/>
</filter>
<linearGradient id="paint0_linear_12_2" x1="66.9035" y1="-12.7945" x2="26.5637" y2="34.1118" gradientUnits="userSpaceOnUse">
<stop stop-color="#00FFE0" stop-opacity="0.66"/>
<stop offset="1" stop-color="#00FFB3"/>
</linearGradient>
<linearGradient id="paint1_linear_12_2" x1="32.2055" y1="39.992" x2="43.6922" y2="45.5555" gradientUnits="userSpaceOnUse">
<stop stop-color="white"/>
<stop offset="1" stop-color="#8BFFDC"/>
</linearGradient>
<linearGradient id="paint2_linear_12_2" x1="21.1545" y1="15.6763" x2="54.0829" y2="28.6604" gradientUnits="userSpaceOnUse">
<stop stop-color="white" stop-opacity="0.29"/>
<stop offset="1" stop-color="white" stop-opacity="0.4"/>
</linearGradient>
<linearGradient id="paint3_linear_12_2" x1="21.1545" y1="15.6763" x2="54.0829" y2="28.6604" gradientUnits="userSpaceOnUse">
<stop stop-color="white"/>
<stop offset="1" stop-color="white" stop-opacity="0"/>
</linearGradient>
</defs>
</svg>
