<svg width="298" height="80" viewBox="0 0 298 80" fill="none" xmlns="http://www.w3.org/2000/svg">
<path d="M178.936 63C178.467 63 178.083 62.8507 177.784 62.552C177.485 62.2533 177.336 61.8693 177.336 61.4V28.248H165.944C165.475 28.248 165.091 28.0987 164.792 27.8C164.493 27.4587 164.344 27.0747 164.344 26.648V19.8C164.344 19.3307 164.493 18.9467 164.792 18.648C165.091 18.3493 165.475 18.2 165.944 18.2H200.376C200.845 18.2 201.229 18.3493 201.528 18.648C201.827 18.9467 201.976 19.3307 201.976 19.8V26.648C201.976 27.0747 201.827 27.4587 201.528 27.8C201.229 28.0987 200.845 28.248 200.376 28.248H188.984V61.4C188.984 61.8693 188.835 62.2533 188.536 62.552C188.237 62.8507 187.853 63 187.384 63H178.936ZM209.393 63C208.923 63 208.539 62.8507 208.241 62.552C207.942 62.2533 207.793 61.8693 207.793 61.4V19.8C207.793 19.3307 207.942 18.9467 208.241 18.648C208.539 18.3493 208.923 18.2 209.393 18.2H239.281C239.75 18.2 240.134 18.3493 240.433 18.648C240.731 18.9467 240.881 19.3307 240.881 19.8V25.816C240.881 26.2853 240.731 26.6693 240.433 26.968C240.134 27.2667 239.75 27.416 239.281 27.416H218.865V36.056H237.873C238.342 36.056 238.726 36.2267 239.025 36.568C239.323 36.8667 239.472 37.2507 239.472 37.72V43.288C239.472 43.7147 239.323 44.0987 239.025 44.44C238.726 44.7387 238.342 44.888 237.873 44.888H218.865V53.784H239.793C240.262 53.784 240.646 53.9333 240.944 54.232C241.243 54.5307 241.393 54.9147 241.393 55.384V61.4C241.393 61.8693 241.243 62.2533 240.944 62.552C240.646 62.8507 240.262 63 239.793 63H209.393ZM250.268 63C249.798 63 249.414 62.8507 249.116 62.552C248.817 62.2533 248.668 61.8693 248.668 61.4V19.8C248.668 19.3307 248.817 18.9467 249.116 18.648C249.414 18.3493 249.798 18.2 250.268 18.2H267.676C273.18 18.2 277.51 19.48 280.668 22.04C283.868 24.5573 285.468 28.1413 285.468 32.792C285.468 35.8213 284.721 38.3813 283.228 40.472C281.777 42.5627 279.857 44.1413 277.468 45.208L286.3 60.952C286.428 61.208 286.492 61.4427 286.492 61.656C286.492 61.9973 286.342 62.3173 286.044 62.616C285.788 62.872 285.468 63 285.084 63H276.636C275.825 63 275.228 62.808 274.844 62.424C274.46 61.9973 274.182 61.6133 274.012 61.272L266.716 47.192H260.124V61.4C260.124 61.8693 259.974 62.2533 259.676 62.552C259.377 62.8507 258.993 63 258.524 63H250.268ZM260.124 38.168H267.548C269.553 38.168 271.046 37.6773 272.028 36.696C273.052 35.7147 273.564 34.3707 273.564 32.664C273.564 31 273.073 29.656 272.092 28.632C271.153 27.608 269.638 27.096 267.548 27.096H260.124V38.168Z" fill="url(#paint0_linear_13_2)"/>
<path d="M85.08 63C84.6107 63 84.2267 62.8507 83.928 62.552C83.6293 62.2533 83.48 61.8693 83.48 61.4V19.8C83.48 19.3307 83.6293 18.9467 83.928 18.648C84.2267 18.3493 84.6107 18.2 85.08 18.2H114.968C115.437 18.2 115.821 18.3493 116.12 18.648C116.419 18.9467 116.568 19.3307 116.568 19.8V25.816C116.568 26.2853 116.419 26.6693 116.12 26.968C115.821 27.2667 115.437 27.416 114.968 27.416H94.552V36.056H113.56C114.029 36.056 114.413 36.2267 114.712 36.568C115.011 36.8667 115.16 37.2507 115.16 37.72V43.288C115.16 43.7147 115.011 44.0987 114.712 44.44C114.413 44.7387 114.029 44.888 113.56 44.888H94.552V53.784H115.48C115.949 53.784 116.333 53.9333 116.632 54.232C116.931 54.5307 117.08 54.9147 117.08 55.384V61.4C117.08 61.8693 116.931 62.2533 116.632 62.552C116.333 62.8507 115.949 63 115.48 63H85.08ZM141.059 63.64C136.792 63.64 133.251 63.0427 130.435 61.848C127.619 60.6107 125.486 59.0107 124.035 57.048C122.584 55.0853 121.816 52.9947 121.731 50.776C121.731 50.4347 121.859 50.136 122.115 49.88C122.414 49.5813 122.755 49.432 123.139 49.432H131.203C131.8 49.432 132.248 49.5387 132.547 49.752C132.888 49.9653 133.187 50.2427 133.443 50.584C133.784 51.224 134.254 51.8427 134.851 52.44C135.491 53.0373 136.302 53.528 137.283 53.912C138.307 54.2533 139.566 54.424 141.059 54.424C143.534 54.424 145.39 54.04 146.627 53.272C147.907 52.504 148.547 51.4587 148.547 50.136C148.547 49.1973 148.206 48.4293 147.523 47.832C146.84 47.192 145.731 46.6373 144.195 46.168C142.702 45.656 140.696 45.144 138.179 44.632C134.936 43.9493 132.163 43.0747 129.859 42.008C127.598 40.8987 125.87 39.4693 124.675 37.72C123.48 35.928 122.883 33.7093 122.883 31.064C122.883 28.4613 123.608 26.136 125.059 24.088C126.552 22.04 128.622 20.44 131.267 19.288C133.912 18.136 137.048 17.56 140.675 17.56C143.619 17.56 146.2 17.944 148.419 18.712C150.68 19.48 152.579 20.504 154.115 21.784C155.651 23.064 156.803 24.4293 157.571 25.88C158.382 27.288 158.808 28.6747 158.851 30.04C158.851 30.3813 158.723 30.7013 158.467 31C158.211 31.256 157.891 31.384 157.507 31.384H149.059C148.59 31.384 148.184 31.2987 147.843 31.128C147.502 30.9573 147.203 30.68 146.947 30.296C146.691 29.3573 146.008 28.5467 144.899 27.864C143.832 27.1387 142.424 26.776 140.675 26.776C138.798 26.776 137.326 27.1173 136.259 27.8C135.235 28.44 134.723 29.4427 134.723 30.808C134.723 31.6613 135 32.408 135.555 33.048C136.152 33.688 137.112 34.2427 138.435 34.712C139.8 35.1813 141.656 35.672 144.003 36.184C147.886 36.9093 151.022 37.8267 153.411 38.936C155.8 40.0027 157.55 41.4107 158.659 43.16C159.768 44.8667 160.323 47.0213 160.323 49.624C160.323 52.5253 159.491 55.0427 157.827 57.176C156.206 59.2667 153.944 60.8667 151.043 61.976C148.142 63.0853 144.814 63.64 141.059 63.64Z" fill="url(#paint1_linear_13_2)"/>
<path d="M75 40.554C75 57.8074 60.5822 66.5613 42.797 66.5613C25.0117 66.5613 26.1301 57.8074 26.1301 40.554C26.1301 23.3006 25.0117 14 42.797 14C60.5822 14 75 23.3006 75 40.554Z" fill="url(#paint2_linear_13_2)"/>
<path d="M36.6526 52.9602C39.094 52.9602 41.0732 52.9022 41.0732 55.2193C41.0732 57.5365 39.094 59.4149 36.6526 59.4149C34.2112 59.4149 32.2321 57.5365 32.2321 55.2193C32.2321 52.9022 34.2112 52.9602 36.6526 52.9602Z" fill="white"/>
<g filter="url(#filter0_d_13_2)">
<rect x="20" y="29.6763" width="33.3516" height="17.751" rx="8.87548" fill="url(#paint3_linear_13_2)" shape-rendering="crispEdges"/>
</g>
<rect x="20" y="29.6763" width="33.3516" height="17.751" rx="8.87548" fill="url(#paint4_linear_13_2)"/>
<path d="M29.5136 38.667C29.5136 41.5954 29.5747 43.9693 27.1352 43.9693C24.6958 43.9693 22.7182 41.5954 22.7182 38.667C22.7182 35.7387 24.6958 33.3648 27.1352 33.3648C29.5747 33.3648 29.5136 35.7387 29.5136 38.667Z" fill="white"/>
<defs>
<filter id="filter0_d_13_2" x="0" y="14.6763" width="73.3516" height="57.751" filterUnits="userSpaceOnUse" color-interpolation-filters="sRGB">
<feFlood flood-opacity="0" result="BackgroundImageFix"/>
<feColorMatrix in="SourceAlpha" type="matrix" values="0 0 0 0 0 0 0 0 0 0 0 0 0 0 0 0 0 0 127 0" result="hardAlpha"/>
<feOffset dy="5"/>
<feGaussianBlur stdDeviation="10"/>
<feComposite in2="hardAlpha" operator="out"/>
<feColorMatrix type="matrix" values="0 0 0 0 0 0 0 0 0 0 0 0 0 0 0 0 0 0 0.04 0"/>
<feBlend mode="normal" in2="BackgroundImageFix" result="effect1_dropShadow_13_2"/>
<feBlend mode="normal" in="SourceGraphic" in2="effect1_dropShadow_13_2" result="shape"/>
</filter>
<linearGradient id="paint0_linear_13_2" x1="298" y1="40" x2="163" y2="40" gradientUnits="userSpaceOnUse">
<stop stop-color="#00FFB3"/>
<stop offset="1" stop-color="#8BFFDC"/>
</linearGradient>
<linearGradient id="paint1_linear_13_2" x1="79" y1="40" x2="217.109" y2="51.0948" gradientUnits="userSpaceOnUse">
<stop stop-opacity="0.81"/>
<stop offset="0.984375" stop-opacity="0.63"/>
</linearGradient>
<linearGradient id="paint2_linear_13_2" x1="66.9035" y1="1.20548" x2="26.5637" y2="48.1118" gradientUnits="userSpaceOnUse">
<stop stop-opacity="0.66"/>
<stop offset="1"/>
</linearGradient>
<linearGradient id="paint3_linear_13_2" x1="21.1545" y1="29.6763" x2="54.0829" y2="42.6604" gradientUnits="userSpaceOnUse">
<stop stop-color="white" stop-opacity="0.29"/>
<stop offset="1" stop-color="white" stop-opacity="0.4"/>
</linearGradient>
<linearGradient id="paint4_linear_13_2" x1="20" y1="39" x2="53" y2="39" gradientUnits="userSpaceOnUse">
<stop stop-color="#00FFB3"/>
<stop offset="1" stop-color="#8BFFDC"/>
</linearGradient>
</defs>
</svg>
