<?xml version="1.0" standalone="no"?>
<!DOCTYPE svg PUBLIC "-//W3C//DTD SVG 20010904//EN"
 "http://www.w3.org/TR/2001/REC-SVG-20010904/DTD/svg10.dtd">
<svg version="1.0" xmlns="http://www.w3.org/2000/svg"
 width="300.000000pt" height="300.000000pt" viewBox="0 0 300.000000 300.000000"
 preserveAspectRatio="xMidYMid meet">
<metadata>
Created by potrace 1.14, written by Peter Selinger 2001-2017
</metadata>
<g transform="translate(0.000000,300.000000) scale(0.100000,-0.100000)"
fill="#000000" stroke="none">
<path d="M630 2985 c-242 -50 -437 -200 -546 -420 -83 -169 -78 -109 -82
-1020 -2 -585 0 -831 8 -885 34 -215 156 -407 335 -524 94 -63 188 -102 292
-122 109 -21 1616 -21 1725 0 107 21 200 59 293 120 173 116 291 295 331 503
21 109 21 1616 0 1725 -30 157 -107 302 -216 409 -73 71 -130 110 -223 154
-154 73 -99 69 -1022 72 -662 1 -843 -1 -895 -12z m842 -715 c327 -31 585
-169 724 -385 139 -219 147 -540 18 -772 -97 -174 -291 -307 -540 -370 -101
-26 -124 -28 -314 -28 -230 0 -279 9 -366 67 -96 65 -132 161 -141 370 l-6
138 -43 21 c-80 38 -144 139 -144 226 0 98 58 196 138 237 l49 25 7 78 c18
219 94 329 255 373 106 28 212 34 363 20z"/>
</g>
</svg>
